<svg width="28" height="28" viewBox="0 0 28 28" fill="none" xmlns="http://www.w3.org/2000/svg">
<path d="M6.72 0C6.1075 0 5.6 0.5075 5.6 1.12V2.24H2.24C1.59031 2.24 1.12 2.71031 1.12 3.36V7.28H26.88V3.36C26.88 2.71031 26.4097 2.24 25.76 2.24H22.4V1.12C22.4 0.5075 21.8925 0 21.28 0H20.16C19.5475 0 19.04 0.5075 19.04 1.12V2.24H8.96V1.12C8.96 0.5075 8.4525 0 7.84 0H6.72ZM6.72 1.12H7.84V4.48H6.72V1.12ZM20.16 1.12H21.28V4.48H20.16V1.12ZM1.12 8.4V25.76C1.12 26.4097 1.59031 26.88 2.24 26.88H25.76C26.4097 26.88 26.88 26.4097 26.88 25.76V8.4H1.12ZM6.72 11.76H9.51999V14.56H6.72V11.76ZM10.64 11.76H13.44V14.56H10.64V11.76ZM14.56 11.76H17.36V14.56H14.56V11.76ZM18.48 11.76H21.28V14.56H18.48V11.76ZM6.72 15.68H9.51999V18.48H6.72V15.68ZM10.64 15.68H13.44V18.48H10.64V15.68ZM14.56 15.68H17.36V18.48H14.56V15.68ZM18.48 15.68H21.28V18.48H18.48V15.68ZM6.72 19.6H9.51999V22.4H6.72V19.6ZM10.64 19.6H13.44V22.4H10.64V19.6ZM14.56 19.6H17.36V22.4H14.56V19.6ZM18.48 19.6H21.28V22.4H18.48V19.6Z" fill="black"/>
</svg>
