<svg width="184" height="49" viewBox="0 0 184 49" fill="none" xmlns="http://www.w3.org/2000/svg">
<path d="M0.64 28L13.12 -1.90735e-06H19.52L32.04 28H25.24L15 3.28H17.56L7.28 28H0.64ZM6.88 22L8.6 17.08H23L24.76 22H6.88ZM46.7991 28.48C42.8257 28.48 39.7191 27.3733 37.4791 25.16C35.2391 22.9467 34.1191 19.7867 34.1191 15.68V-1.90735e-06H40.5991V15.44C40.5991 18.1067 41.1457 20.0267 42.2391 21.2C43.3324 22.3733 44.8657 22.96 46.8391 22.96C48.8124 22.96 50.3457 22.3733 51.4391 21.2C52.5324 20.0267 53.0791 18.1067 53.0791 15.44V-1.90735e-06H59.4791V15.68C59.4791 19.7867 58.3591 22.9467 56.1191 25.16C53.8791 27.3733 50.7724 28.48 46.7991 28.48ZM65.8825 28V-1.90735e-06H79.5625C83.0825 -1.90735e-06 85.7225 0.666665 87.4825 2C89.2692 3.33333 90.1625 5.09333 90.1625 7.28C90.1625 8.74667 89.8025 10.0267 89.0825 11.12C88.3625 12.1867 87.3758 13.0133 86.1225 13.6C84.8692 14.1867 83.4292 14.48 81.8025 14.48L82.5625 12.84C84.3225 12.84 85.8825 13.1333 87.2425 13.72C88.6025 14.28 89.6558 15.12 90.4025 16.24C91.1758 17.36 91.5625 18.7333 91.5625 20.36C91.5625 22.76 90.6158 24.64 88.7225 26C86.8292 27.3333 84.0425 28 80.3625 28H65.8825ZM72.3225 23.12H79.8825C81.5625 23.12 82.8292 22.8533 83.6825 22.32C84.5625 21.76 85.0025 20.88 85.0025 19.68C85.0025 18.5067 84.5625 17.64 83.6825 17.08C82.8292 16.4933 81.5625 16.2 79.8825 16.2H71.8425V11.48H78.7625C80.3358 11.48 81.5358 11.2133 82.3625 10.68C83.2158 10.12 83.6425 9.28 83.6425 8.16C83.6425 7.06667 83.2158 6.25333 82.3625 5.72C81.5358 5.16 80.3358 4.88 78.7625 4.88H72.3225V23.12ZM108.908 28.48C104.935 28.48 101.828 27.3733 99.5884 25.16C97.3484 22.9467 96.2284 19.7867 96.2284 15.68V-1.90735e-06H102.708V15.44C102.708 18.1067 103.255 20.0267 104.348 21.2C105.442 22.3733 106.975 22.96 108.948 22.96C110.922 22.96 112.455 22.3733 113.548 21.2C114.642 20.0267 115.188 18.1067 115.188 15.44V-1.90735e-06H121.588V15.68C121.588 19.7867 120.468 22.9467 118.228 25.16C115.988 27.3733 112.882 28.48 108.908 28.48ZM127.992 28V-1.90735e-06H140.112C142.619 -1.90735e-06 144.779 0.413332 146.592 1.24C148.405 2.04 149.805 3.2 150.792 4.72C151.779 6.24 152.272 8.05333 152.272 10.16C152.272 12.24 151.779 14.04 150.792 15.56C149.805 17.0533 148.405 18.2 146.592 19C144.779 19.8 142.619 20.2 140.112 20.2H131.592L134.472 17.36V28H127.992ZM145.792 28L138.792 17.84H145.712L152.792 28H145.792ZM134.472 18.08L131.592 15.04H139.752C141.752 15.04 143.245 14.6133 144.232 13.76C145.219 12.88 145.712 11.68 145.712 10.16C145.712 8.61333 145.219 7.41333 144.232 6.56C143.245 5.70667 141.752 5.28 139.752 5.28H131.592L134.472 2.2V18.08ZM157.406 28V-1.90735e-06H162.766L179.286 20.16H176.686V-1.90735e-06H183.086V28H177.766L161.206 7.84H163.806V28H157.406ZM0.856 48L4.984 38.8H7.48L11.624 48H9.128L5.816 40.016H6.664L3.304 48H0.856ZM3.112 46.176L3.768 44.352H8.312L8.968 46.176H3.112ZM17.858 48.176C16.9513 48.176 16.1727 48.0107 15.522 47.68C14.8713 47.3493 14.37 46.8747 14.018 46.256C13.6767 45.6267 13.506 44.8853 13.506 44.032V38.8H16.034V43.952C16.034 44.6667 16.194 45.2053 16.514 45.568C16.834 45.9307 17.2927 46.112 17.89 46.112C18.4873 46.112 18.9407 45.9307 19.25 45.568C19.5593 45.2053 19.714 44.6667 19.714 43.952V38.8H22.21V44.032C22.21 44.8853 22.0393 45.6267 21.698 46.256C21.3567 46.8747 20.8607 47.3493 20.21 47.68C19.5593 48.0107 18.7753 48.176 17.858 48.176ZM27.4187 48V40.768H24.5227V38.8H32.8428V40.768H29.9468V48H27.4187ZM39.6036 48.176C38.6116 48.176 37.7263 47.9733 36.9476 47.568C36.169 47.152 35.5556 46.5813 35.1076 45.856C34.6596 45.1307 34.4356 44.3093 34.4356 43.392C34.4356 42.4747 34.6596 41.6587 35.1076 40.944C35.5556 40.2293 36.169 39.664 36.9476 39.248C37.7263 38.832 38.6116 38.624 39.6036 38.624C40.5956 38.624 41.481 38.832 42.2596 39.248C43.0383 39.664 43.6516 40.2293 44.0996 40.944C44.5476 41.6587 44.7716 42.4747 44.7716 43.392C44.7716 44.3093 44.5476 45.1307 44.0996 45.856C43.6516 46.5813 43.0383 47.152 42.2596 47.568C41.481 47.9733 40.5956 48.176 39.6036 48.176ZM39.6036 46.112C40.1156 46.112 40.5636 46 40.9476 45.776C41.3423 45.5413 41.6516 45.216 41.8756 44.8C42.0996 44.384 42.2116 43.92 42.2116 43.408C42.2116 42.8747 42.0996 42.4053 41.8756 42C41.6516 41.5947 41.3423 41.2747 40.9476 41.04C40.5636 40.8053 40.1156 40.688 39.6036 40.688C39.1023 40.688 38.6543 40.8053 38.2596 41.04C37.865 41.2747 37.5503 41.5947 37.3156 42C37.0916 42.4053 36.9796 42.8693 36.9796 43.392C36.9796 43.9147 37.0916 44.384 37.3156 44.8C37.5503 45.216 37.865 45.5413 38.2596 45.776C38.6543 46 39.1023 46.112 39.6036 46.112ZM47.6807 48V38.8H49.7927L53.6007 44.992H52.5767L56.3048 38.8H58.4327L58.4648 48H56.0968L56.0808 42.4H56.4327L53.6167 47.024H52.4807L49.5687 42.4H50.0327V48H47.6807ZM66.5311 48.176C65.5391 48.176 64.6538 47.9733 63.8751 47.568C63.0965 47.152 62.4831 46.5813 62.0351 45.856C61.5871 45.1307 61.3631 44.3093 61.3631 43.392C61.3631 42.4747 61.5871 41.6587 62.0351 40.944C62.4831 40.2293 63.0965 39.664 63.8751 39.248C64.6538 38.832 65.5391 38.624 66.5311 38.624C67.5231 38.624 68.4085 38.832 69.1871 39.248C69.9658 39.664 70.5791 40.2293 71.0271 40.944C71.4751 41.6587 71.6991 42.4747 71.6991 43.392C71.6991 44.3093 71.4751 45.1307 71.0271 45.856C70.5791 46.5813 69.9658 47.152 69.1871 47.568C68.4085 47.9733 67.5231 48.176 66.5311 48.176ZM66.5311 46.112C67.0431 46.112 67.4911 46 67.8751 45.776C68.2698 45.5413 68.5791 45.216 68.8031 44.8C69.0271 44.384 69.1391 43.92 69.1391 43.408C69.1391 42.8747 69.0271 42.4053 68.8031 42C68.5791 41.5947 68.2698 41.2747 67.8751 41.04C67.4911 40.8053 67.0431 40.688 66.5311 40.688C66.0298 40.688 65.5818 40.8053 65.1871 41.04C64.7925 41.2747 64.4778 41.5947 64.2431 42C64.0191 42.4053 63.9071 42.8693 63.9071 43.392C63.9071 43.9147 64.0191 44.384 64.2431 44.8C64.4778 45.216 64.7925 45.5413 65.1871 45.776C65.5818 46 66.0298 46.112 66.5311 46.112ZM65.0751 37.696L67.2351 35.392H69.9231L67.0271 37.696H65.0751ZM76.9529 48L72.9529 38.8H75.6409L79.0329 46.88H77.4809L80.9369 38.8H83.4489L79.4489 48H76.9529ZM87.9839 42.416H92.4319V44.256H87.9839V42.416ZM88.2399 46.064H93.1519V48H85.7439V38.8H92.9759V40.736H88.2399V46.064ZM96.1139 48V38.8H98.6419V48H96.1139ZM109.419 45.2C109.419 45.776 109.253 46.288 108.923 46.736C108.603 47.184 108.133 47.536 107.515 47.792C106.907 48.048 106.155 48.176 105.259 48.176C104.523 48.176 103.797 48.0853 103.083 47.904C102.379 47.7227 101.808 47.4827 101.371 47.184L102.251 45.312C102.667 45.5893 103.152 45.808 103.707 45.968C104.261 46.128 104.827 46.208 105.403 46.208C105.968 46.208 106.363 46.128 106.587 45.968C106.811 45.808 106.923 45.6213 106.923 45.408C106.923 45.1947 106.821 45.024 106.619 44.896C106.427 44.768 106.171 44.6667 105.851 44.592C105.541 44.5067 105.195 44.4267 104.811 44.352C104.437 44.2773 104.059 44.1813 103.675 44.064C103.301 43.9467 102.955 43.792 102.635 43.6C102.325 43.3973 102.069 43.136 101.867 42.816C101.675 42.4853 101.579 42.0747 101.579 41.584C101.579 41.008 101.744 40.5013 102.075 40.064C102.416 39.616 102.896 39.264 103.515 39.008C104.133 38.752 104.869 38.624 105.723 38.624C106.299 38.624 106.885 38.688 107.483 38.816C108.08 38.944 108.603 39.1467 109.051 39.424L108.235 41.296C107.819 41.04 107.387 40.8587 106.939 40.752C106.501 40.6453 106.064 40.592 105.627 40.592C105.093 40.592 104.704 40.672 104.459 40.832C104.213 40.992 104.091 41.1947 104.091 41.44C104.091 41.6533 104.187 41.824 104.379 41.952C104.571 42.08 104.821 42.1867 105.131 42.272C105.451 42.3467 105.803 42.4213 106.187 42.496C106.571 42.5707 106.949 42.6667 107.323 42.784C107.696 42.8907 108.043 43.04 108.363 43.232C108.683 43.424 108.939 43.68 109.131 44C109.323 44.3093 109.419 44.7093 109.419 45.2Z" fill="black"/>
</svg>
