<svg width="28" height="28" viewBox="0 0 28 28" fill="none" xmlns="http://www.w3.org/2000/svg">
<path d="M13.9999 1.67999C13.6124 1.67999 13.2389 1.73522 12.8799 1.82874V5.03999C12.8799 5.65767 13.3822 6.15999 13.9999 6.15999C14.6176 6.15999 15.1199 5.65767 15.1199 5.03999V1.82874C14.761 1.73522 14.3874 1.67999 13.9999 1.67999ZM11.7599 2.29249C10.4232 3.07649 9.51991 4.53598 9.51991 6.20702C9.51991 6.77206 9.62291 7.32402 9.82507 7.84874C9.83067 7.87562 11.5094 12.32 11.5094 12.32H16.4904C16.4904 12.32 18.1686 7.87616 18.1737 7.84984C18.3769 7.32456 18.4799 6.77153 18.4799 6.20593C18.4799 4.53489 17.5766 3.07705 16.2399 2.29249V5.03999C16.2399 6.27535 15.2353 7.27999 13.9999 7.27999C12.7646 7.27999 11.7599 6.27535 11.7599 5.03999V2.29249ZM12.3199 13.44V17.92H15.6799V13.44H12.3199ZM12.321 19.04C10.5486 19.04 9.04888 20.2227 8.56616 21.84H19.4348C18.9515 20.2227 17.4528 19.04 15.681 19.04H12.321ZM7.68679 22.96C6.77119 23.5603 6.15991 24.5857 6.15991 25.76C6.15991 26.0691 6.41023 26.32 6.71991 26.32H21.2799C21.5896 26.32 21.8399 26.0691 21.8399 25.76C21.8399 24.5857 21.2286 23.5603 20.313 22.96H7.68679Z" fill="black"/>
</svg>
