<svg width="28" height="28" viewBox="0 0 28 28" fill="none" xmlns="http://www.w3.org/2000/svg">
<path d="M10.6401 6.15997C8.866 6.15997 7.31506 6.6106 6.14256 7.62779C5.27412 8.38029 4.66818 9.4631 4.28756 10.804C4.17818 11.1212 4.08631 11.4603 4.01193 11.819C3.81506 11.8343 3.62256 11.8365 3.41037 11.8956C3.03412 11.9984 2.63381 12.169 2.35381 12.5431V12.5453C1.74568 13.3547 0.813809 14.7525 0.605996 16.6118C0.577559 16.8525 0.560059 17.1018 0.560059 17.36C0.560059 18.1584 1.0435 18.7862 1.57068 19.2347C2.01693 19.6153 2.51131 19.8843 2.95756 20.0484C3.3885 21.409 4.66162 22.4 6.16006 22.4C7.61693 22.4 8.85943 21.4615 9.32318 20.16H19.2369C19.7007 21.4615 20.9432 22.4 22.4001 22.4C24.0713 22.4 25.4626 21.164 25.7163 19.5606C26.1429 19.4972 26.5126 19.3528 26.8035 19.1275C27.206 18.8125 27.4401 18.3378 27.4401 17.8565V15.0368C27.4401 14.6584 27.2935 14.3478 27.0288 13.9584C26.7663 13.5712 26.3682 13.1468 25.8038 12.7487C24.7254 11.9875 22.9885 11.3618 20.4904 11.2459C19.9676 10.4956 19.4447 9.67747 18.386 8.08935C18.1738 7.76997 18.0032 7.4856 17.7713 7.21654C17.5416 6.94747 17.2354 6.70685 16.8416 6.54716C16.0563 6.22779 14.9779 6.15997 12.8801 6.15997H10.6401ZM10.6401 8.95997H15.1201C15.7632 8.95997 15.8857 8.98404 16.2401 9.51997L17.9201 12.32H10.6401V8.95997ZM9.52006 9.00372V12.32H6.72006C6.77475 10.7887 7.66506 9.25966 9.52006 9.00372ZM11.7601 14H13.4401C13.7485 14 14.0001 14.2515 14.0001 14.56C14.0001 14.8684 13.7485 15.12 13.4401 15.12H11.7601C11.4516 15.12 11.2001 14.8684 11.2001 14.56C11.2001 14.2515 11.4516 14 11.7601 14ZM6.16006 16.8C7.40475 16.8 8.40006 17.7953 8.40006 19.04C8.40006 20.2847 7.40475 21.28 6.16006 21.28C4.91537 21.28 3.92006 20.2847 3.92006 19.04C3.92006 17.7953 4.91537 16.8 6.16006 16.8ZM22.4001 16.8C23.6447 16.8 24.6401 17.7953 24.6401 19.04C24.6401 20.2847 23.6447 21.28 22.4001 21.28C21.1554 21.28 20.1601 20.2847 20.1601 19.04C20.1601 17.7953 21.1554 16.8 22.4001 16.8Z" fill="black"/>
</svg>
