<svg width="27" height="28" viewBox="0 0 27 28" fill="none" xmlns="http://www.w3.org/2000/svg">
<path d="M4.095 0C2.43031 0 1.12 1.31031 1.12 2.975V23.52H18.48V2.975C18.48 1.31031 17.1697 0 15.505 0H4.095ZM4.9875 2.8H14.6125C15.1725 2.8 15.68 3.3075 15.68 3.8675V9.5725C15.68 10.1325 15.1725 10.64 14.6125 10.64H4.9875C4.4275 10.64 3.92 10.1325 3.92 9.5725V3.8675C3.92 3.3075 4.4275 2.8 4.9875 2.8ZM20.0025 2.9575L19.1975 3.7625L22.4 6.9475V11.5325C22.4 12.1691 22.6647 12.8297 23.1175 13.2825L25.76 15.9075V20.16C25.76 21.4156 24.7756 22.4 23.52 22.4C22.2644 22.4 21.28 21.4156 21.28 20.16V17.36C21.28 15.8725 20.3569 14.6453 19.04 14.1925V15.4175C19.7116 15.8003 20.16 16.5156 20.16 17.36V20.16C20.16 22.0434 21.6366 23.52 23.52 23.52C25.4034 23.52 26.88 22.0434 26.88 20.16V10.8675C26.88 10.2309 26.6153 9.57031 26.1625 9.1175L20.0025 2.9575ZM0.56 24.64C0.251563 24.64 0 24.8894 0 25.2V27.44C0 27.7506 0.251563 28 0.56 28H19.04C19.3506 28 19.6 27.7506 19.6 27.44V25.2C19.6 24.8894 19.3506 24.64 19.04 24.64H0.56Z" fill="black"/>
</svg>
