<svg width="15" height="11" viewBox="0 0 15 11" fill="none" xmlns="http://www.w3.org/2000/svg">
<path d="M13.9078 3.97266C14.0172 3.89062 14.1813 3.97266 14.1813 4.10938V9.6875C14.1813 10.4258 13.5797 11 12.8688 11H1.49375C0.755469 11 0.18125 10.4258 0.18125 9.6875V4.10938C0.18125 3.97266 0.317969 3.89062 0.427344 3.97266C1.05625 4.46484 1.84922 5.06641 4.63828 7.08984C5.2125 7.5 6.19688 8.40234 7.18125 8.40234C8.13828 8.40234 9.15 7.5 9.69688 7.08984C12.4859 5.06641 13.2789 4.46484 13.9078 3.97266ZM7.18125 7.5C6.525 7.52734 5.62266 6.70703 5.15781 6.37891C1.52109 3.75391 1.24766 3.50781 0.427344 2.85156C0.263281 2.74219 0.18125 2.55078 0.18125 2.33203V1.8125C0.18125 1.10156 0.755469 0.5 1.49375 0.5H12.8688C13.5797 0.5 14.1813 1.10156 14.1813 1.8125V2.33203C14.1813 2.55078 14.0719 2.74219 13.9078 2.85156C13.0875 3.50781 12.8141 3.75391 9.17734 6.37891C8.7125 6.70703 7.81016 7.52734 7.18125 7.5Z" fill="black"/>
</svg>
