<svg width="18" height="13" viewBox="0 0 18 13" fill="none" xmlns="http://www.w3.org/2000/svg">
<path d="M17.875 6.0625C17.9375 6.1875 17.9688 6.34375 17.9688 6.53125C17.9688 6.6875 17.9375 6.84375 17.875 6.96875C16.1875 10.2812 12.8125 12.5 9.00005 12.5C5.1563 12.5 1.7813 10.2812 0.0937996 6.96875C0.0312996 6.84375 4.95911e-05 6.6875 4.95911e-05 6.5C4.95911e-05 6.34375 0.0312996 6.1875 0.0937996 6.0625C1.7813 2.75 5.1563 0.5 9.00005 0.5C12.8125 0.5 16.1875 2.75 17.875 6.0625ZM9.00005 11V11.0312C11.4688 11.0312 13.5 9 13.5 6.53125V6.5C13.5 4.03125 11.4688 2 9.00005 2C6.50005 2 4.50005 4.03125 4.50005 6.5C4.50005 9 6.50005 11 9.00005 11ZM9.00005 3.5V3.53125C10.6563 3.53125 12 4.84375 12 6.5C12 8.15625 10.6563 9.5 9.00005 9.5C7.3438 9.5 6.00005 8.15625 6.00005 6.5C6.00005 6.25 6.0313 5.96875 6.0938 5.71875C6.3438 5.90625 6.6563 6 7.00005 6C7.81255 6 8.4688 5.34375 8.4688 4.53125C8.4688 4.1875 8.37505 3.875 8.18755 3.625C8.43755 3.5625 8.7188 3.53125 9.00005 3.5Z" fill="white"/>
</svg>
