<svg width="16" height="16" viewBox="0 0 16 16" fill="none" xmlns="http://www.w3.org/2000/svg">
<path d="M8 0.25C12.2812 0.25 15.75 3.71875 15.75 8C15.75 12.2812 12.2812 15.75 8 15.75C3.71875 15.75 0.25 12.2812 0.25 8C0.25 3.71875 3.71875 0.25 8 0.25ZM10.875 10.0312C10.9375 9.96875 11 9.84375 11 9.71875C11 9.5625 10.9062 9.4375 10.8125 9.34375L9 8V3.5C9 3.25 8.75 3 8.5 3H7.5C7.21875 3 7 3.25 7 3.5V8.375C7 8.78125 7.15625 9.125 7.46875 9.34375L9.5625 10.9062C9.625 10.9688 9.75 11.0312 9.84375 11.0312C10.0312 11.0312 10.1562 10.9375 10.25 10.8125L10.875 10.0312Z" fill="#CC2D32"/>
</svg>
