<svg width="20" height="20" viewBox="0 0 20 20" fill="none" xmlns="http://www.w3.org/2000/svg">
<path d="M9.9563 4.80859C12.6633 4.80859 14.8977 7.04297 14.8977 9.75C14.8977 12.5 12.6633 14.6914 9.9563 14.6914C7.2063 14.6914 5.01489 12.5 5.01489 9.75C5.01489 7.04297 7.2063 4.80859 9.9563 4.80859ZM9.9563 12.9727C11.718 12.9727 13.136 11.5547 13.136 9.75C13.136 7.98828 11.718 6.57031 9.9563 6.57031C8.15161 6.57031 6.73364 7.98828 6.73364 9.75C6.73364 11.5547 8.19458 12.9727 9.9563 12.9727ZM16.2297 4.63672C16.2297 5.28125 15.7141 5.79688 15.0696 5.79688C14.425 5.79688 13.9094 5.28125 13.9094 4.63672C13.9094 3.99219 14.425 3.47656 15.0696 3.47656C15.7141 3.47656 16.2297 3.99219 16.2297 4.63672ZM19.4954 5.79688C19.5813 7.38672 19.5813 12.1562 19.4954 13.7461C19.4094 15.293 19.0657 16.625 17.9485 17.7852C16.8313 18.9023 15.4563 19.2461 13.9094 19.332C12.3196 19.418 7.55005 19.418 5.96021 19.332C4.41333 19.2461 3.0813 18.9023 1.92114 17.7852C0.803955 16.625 0.460205 15.293 0.374268 13.7461C0.28833 12.1562 0.28833 7.38672 0.374268 5.79688C0.460205 4.25 0.803955 2.875 1.92114 1.75781C3.0813 0.640625 4.41333 0.296875 5.96021 0.210938C7.55005 0.125 12.3196 0.125 13.9094 0.210938C15.4563 0.296875 16.8313 0.640625 17.9485 1.75781C19.0657 2.875 19.4094 4.25 19.4954 5.79688ZM17.4329 15.4219C17.9485 14.1758 17.8196 11.168 17.8196 9.75C17.8196 8.375 17.9485 5.36719 17.4329 4.07812C17.0891 3.26172 16.4446 2.57422 15.6282 2.27344C14.3391 1.75781 11.3313 1.88672 9.9563 1.88672C8.53833 1.88672 5.53052 1.75781 4.28442 2.27344C3.42505 2.61719 2.78052 3.26172 2.43677 4.07812C1.92114 5.36719 2.05005 8.375 2.05005 9.75C2.05005 11.168 1.92114 14.1758 2.43677 15.4219C2.78052 16.2812 3.42505 16.9258 4.28442 17.2695C5.53052 17.7852 8.53833 17.6562 9.9563 17.6562C11.3313 17.6562 14.3391 17.7852 15.6282 17.2695C16.4446 16.9258 17.1321 16.2812 17.4329 15.4219Z" fill="#545F69"/>
</svg>
