<svg width="29" height="29" viewBox="0 0 29 29" fill="none" xmlns="http://www.w3.org/2000/svg">
<path d="M14.7945 6.8125C18.732 6.8125 21.982 10.0625 21.982 14C21.982 18 18.732 21.1875 14.7945 21.1875C10.7945 21.1875 7.60698 18 7.60698 14C7.60698 10.0625 10.7945 6.8125 14.7945 6.8125ZM14.7945 18.6875C17.357 18.6875 19.4195 16.625 19.4195 14C19.4195 11.4375 17.357 9.375 14.7945 9.375C12.1695 9.375 10.107 11.4375 10.107 14C10.107 16.625 12.232 18.6875 14.7945 18.6875ZM23.9195 6.5625C23.9195 7.5 23.1695 8.25 22.232 8.25C21.2945 8.25 20.5445 7.5 20.5445 6.5625C20.5445 5.625 21.2945 4.875 22.232 4.875C23.1695 4.875 23.9195 5.625 23.9195 6.5625ZM28.6695 8.25C28.7945 10.5625 28.7945 17.5 28.6695 19.8125C28.5445 22.0625 28.0445 24 26.4195 25.6875C24.7945 27.3125 22.7945 27.8125 20.5445 27.9375C18.232 28.0625 11.2945 28.0625 8.98198 27.9375C6.73198 27.8125 4.79448 27.3125 3.10698 25.6875C1.48198 24 0.981983 22.0625 0.856983 19.8125C0.731983 17.5 0.731983 10.5625 0.856983 8.25C0.981983 6 1.48198 4 3.10698 2.375C4.79448 0.75 6.73198 0.25 8.98198 0.125C11.2945 0 18.232 0 20.5445 0.125C22.7945 0.25 24.7945 0.75 26.4195 2.375C28.0445 4 28.5445 6 28.6695 8.25ZM25.6695 22.25C26.4195 20.4375 26.232 16.0625 26.232 14C26.232 12 26.4195 7.625 25.6695 5.75C25.1695 4.5625 24.232 3.5625 23.0445 3.125C21.1695 2.375 16.7945 2.5625 14.7945 2.5625C12.732 2.5625 8.35698 2.375 6.54448 3.125C5.29448 3.625 4.35698 4.5625 3.85698 5.75C3.10698 7.625 3.29448 12 3.29448 14C3.29448 16.0625 3.10698 20.4375 3.85698 22.25C4.35698 23.5 5.29448 24.4375 6.54448 24.9375C8.35698 25.6875 12.732 25.5 14.7945 25.5C16.7945 25.5 21.1695 25.6875 23.0445 24.9375C24.232 24.4375 25.232 23.5 25.6695 22.25Z" fill="#CC2D32"/>
</svg>
