<svg width="28" height="28" viewBox="0 0 28 28" fill="none" xmlns="http://www.w3.org/2000/svg">
<path d="M13.9914 1.11237C13.843 1.11469 13.7017 1.17577 13.5983 1.28219C13.495 1.38861 13.4381 1.5317 13.4401 1.68003V17.6882L9.91605 14.1641C9.86387 14.1104 9.80146 14.0678 9.73252 14.0387C9.66357 14.0096 9.58949 13.9946 9.51465 13.9946C9.40325 13.9946 9.29438 14.0278 9.20198 14.0901C9.10957 14.1523 9.03782 14.2407 8.9959 14.3439C8.95398 14.4471 8.9438 14.5605 8.96665 14.6695C8.9895 14.7785 9.04435 14.8783 9.12418 14.956L13.6042 19.436C13.7092 19.5409 13.8516 19.5999 14.0001 19.5999C14.1486 19.5999 14.291 19.5409 14.3961 19.436L18.8761 14.956C18.9298 14.9044 18.9727 14.8426 19.0023 14.7742C19.0318 14.7058 19.0474 14.6322 19.0482 14.5577C19.049 14.4832 19.0348 14.4093 19.0067 14.3403C18.9785 14.2713 18.9369 14.2086 18.8842 14.1559C18.8315 14.1033 18.7688 14.0616 18.6999 14.0335C18.6309 14.0053 18.557 13.9912 18.4825 13.9919C18.408 13.9927 18.3344 14.0083 18.266 14.0379C18.1976 14.0674 18.1358 14.1103 18.0842 14.1641L14.5601 17.6882V1.68003C14.5611 1.60511 14.5471 1.53074 14.5189 1.46133C14.4907 1.39193 14.4488 1.32889 14.3958 1.27596C14.3427 1.22303 14.2796 1.18128 14.2101 1.15318C14.1407 1.12508 14.0663 1.1112 13.9914 1.11237ZM18.4659 1.95456C18.3323 1.95225 18.2023 1.99777 18.0994 2.0829C17.9964 2.16802 17.9273 2.28715 17.9044 2.41878C17.8816 2.55041 17.9065 2.68587 17.9748 2.80071C18.0431 2.91555 18.1501 3.0022 18.2767 3.04503C22.655 4.75564 25.7601 9.00935 25.7601 14C25.7601 20.5014 20.5015 25.76 14.0001 25.76C7.49878 25.76 2.24012 20.5014 2.24012 14C2.24012 9.00935 5.34522 4.75564 9.72355 3.04503C9.84679 2.99846 9.94967 2.90994 10.0141 2.79503C10.0785 2.68012 10.1004 2.54617 10.0758 2.41674C10.0513 2.28731 9.98188 2.17067 9.87985 2.08734C9.77781 2.00401 9.64966 1.95932 9.51793 1.96112C9.44886 1.96245 9.38063 1.97654 9.31668 2.00269C4.51885 3.87719 1.12012 8.54447 1.12012 14C1.12012 21.1067 6.89346 26.88 14.0001 26.88C21.1068 26.88 26.8801 21.1067 26.8801 14C26.8801 8.54447 23.4814 3.87719 18.6836 2.00269C18.615 1.97222 18.5409 1.95586 18.4659 1.95456Z" fill="white"/>
</svg>
