<svg width="28" height="28" viewBox="0 0 28 28" fill="none" xmlns="http://www.w3.org/2000/svg">
<path d="M13.9913 1.11234C13.8429 1.11466 13.7016 1.17573 13.5982 1.28216C13.4949 1.38858 13.438 1.53166 13.44 1.68V17.6881L9.91594 14.1641C9.86375 14.1104 9.80134 14.0678 9.7324 14.0387C9.66346 14.0095 9.58938 13.9945 9.51453 13.9945C9.40313 13.9946 9.29427 14.0278 9.20186 14.09C9.10946 14.1523 9.03771 14.2406 8.99579 14.3438C8.95387 14.4471 8.94368 14.5604 8.96653 14.6695C8.98938 14.7785 9.04423 14.8782 9.12407 14.9559L13.6041 19.4359C13.7091 19.5409 13.8515 19.5999 14 19.5999C14.1485 19.5999 14.2909 19.5409 14.3959 19.4359L18.8759 14.9559C18.9297 14.9043 18.9726 14.8425 19.0022 14.7741C19.0317 14.7057 19.0473 14.6321 19.0481 14.5576C19.0488 14.4831 19.0347 14.4092 19.0066 14.3403C18.9784 14.2713 18.9368 14.2086 18.8841 14.1559C18.8314 14.1032 18.7687 14.0616 18.6998 14.0334C18.6308 14.0053 18.5569 13.9912 18.4824 13.9919C18.4079 13.9927 18.3343 14.0083 18.2659 14.0378C18.1975 14.0674 18.1357 14.1103 18.0841 14.1641L14.56 17.6881V1.68C14.561 1.60508 14.547 1.53071 14.5188 1.4613C14.4905 1.3919 14.4487 1.32886 14.3956 1.27593C14.3426 1.223 14.2795 1.18125 14.21 1.15315C14.1406 1.12505 14.0662 1.11117 13.9913 1.11234ZM18.4658 1.95453C18.3322 1.95222 18.2022 1.99774 18.0992 2.08287C17.9963 2.16799 17.9271 2.28712 17.9043 2.41875C17.8815 2.55038 17.9064 2.68584 17.9747 2.80068C18.043 2.91552 18.15 3.00217 18.2766 3.045C22.6549 4.75561 25.76 9.00932 25.76 14C25.76 20.5013 20.5013 25.76 14 25.76C7.49866 25.76 2.24 20.5013 2.24 14C2.24 9.00932 5.34511 4.75561 9.72344 3.045C9.84668 2.99843 9.94955 2.90991 10.014 2.795C10.0784 2.68009 10.1003 2.54614 10.0757 2.41671C10.0512 2.28728 9.98177 2.17064 9.87973 2.08731C9.77769 2.00398 9.64954 1.95929 9.51782 1.96109C9.44874 1.96242 9.38051 1.97651 9.31657 2.00265C4.51874 3.87716 1.12 8.54444 1.12 14C1.12 21.1067 6.89334 26.88 14 26.88C21.1067 26.88 26.88 21.1067 26.88 14C26.88 8.54444 23.4813 3.87716 18.6834 2.00265C18.6148 1.97219 18.5408 1.95583 18.4658 1.95453Z" fill="black"/>
</svg>
