<svg width="28" height="28" viewBox="0 0 28 28" fill="none" xmlns="http://www.w3.org/2000/svg">
<path d="M11.76 2.79999C11.4516 2.79999 11.2 3.05155 11.2 3.35999V5.59999C11.2 5.90843 11.4516 6.15999 11.76 6.15999H14V7.27999H17.36V6.15999H19.6C19.9106 6.15999 20.16 5.90843 20.16 5.59999V3.35999C20.16 3.05155 19.9106 2.79999 19.6 2.79999H11.76ZM11.2 7.83999C10.7822 7.83999 10.3622 8.00405 10.045 8.32999L7.5775 11.2H6.16C5.29594 11.2 4.48 12.0159 4.48 12.88V19.6C4.48 20.4794 5.28063 21.28 6.16 21.28H7.5775L10.08 24.1675C10.3731 24.465 10.7822 24.64 11.2 24.64H18.3925C18.8081 24.64 19.2194 24.465 19.5125 24.1675L23.625 19.985C23.9203 19.6853 24.08 19.2915 24.08 18.865V17.92H24.64V20.16C24.64 20.4706 24.8894 20.72 25.2 20.72H27.44C27.7506 20.72 28 20.4706 28 20.16V11.2C28 10.8894 27.7506 10.64 27.44 10.64H25.2C24.8894 10.64 24.64 10.8894 24.64 11.2V13.44H24.08V9.43249C24.08 8.55311 23.3734 7.83999 22.505 7.83999H11.2ZM0.56 11.2C0.251563 11.2 0 11.4516 0 11.76V20.72C0 21.0306 0.251563 21.28 0.56 21.28H2.8C3.10844 21.28 3.36 21.0306 3.36 20.72V17.92H3.92V14.56H3.36V11.76C3.36 11.4516 3.10844 11.2 2.8 11.2H0.56ZM15.12 11.2H17.92L15.12 15.68H17.92L13.44 21.84L15.12 16.8H12.32L15.12 11.2Z" fill="black"/>
</svg>
