<svg width="28" height="28" viewBox="0 0 28 28" fill="none" xmlns="http://www.w3.org/2000/svg">
<path d="M14.0001 1.67999C10.2835 1.67999 7.28011 4.68343 7.28011 8.39999V11.2H5.04011C4.08854 11.2 3.36011 11.9284 3.36011 12.88V26.32C3.36011 27.2716 4.08854 28 5.04011 28H22.9601C23.9117 28 24.6401 27.2716 24.6401 26.32V12.88C24.6401 11.9284 23.9117 11.2 22.9601 11.2H20.7201V8.39999C20.7201 4.68343 17.7167 1.67999 14.0001 1.67999ZM14.0001 2.79999C17.1173 2.79999 19.6001 5.28281 19.6001 8.39999V11.2H8.40011V8.39999C8.40011 5.28281 10.8829 2.79999 14.0001 2.79999ZM14.0001 16.8C14.9517 16.8 15.6801 17.5284 15.6801 18.48C15.6801 18.9831 15.457 19.425 15.1201 19.705V21.28C15.1201 21.8969 14.617 22.4 14.0001 22.4C13.3832 22.4 12.8801 21.8969 12.8801 21.28V19.705C12.5432 19.425 12.3201 18.9831 12.3201 18.48C12.3201 17.5284 13.0485 16.8 14.0001 16.8Z" fill="black"/>
</svg>
