<svg width="28" height="28" viewBox="0 0 28 28" fill="none" xmlns="http://www.w3.org/2000/svg">
<path d="M14 3.91998C6.89718 3.91998 1.12 9.69717 1.12 16.8C1.12 18.7228 1.50281 20.4662 2.27062 22.1025C2.30562 22.179 2.34281 22.2534 2.37781 22.33C2.43031 22.4328 2.48062 22.5378 2.53531 22.6406C2.74312 23.0453 2.96406 23.4434 3.21562 23.8262C3.31843 23.9837 3.49343 24.08 3.68375 24.08H24.3162C24.5066 24.08 24.6816 23.9837 24.7844 23.8262C25.0359 23.4434 25.2569 23.0453 25.4647 22.6406C25.5172 22.5378 25.5697 22.4328 25.6222 22.33C25.6572 22.2534 25.6944 22.179 25.7294 22.1025C26.4972 20.4662 26.88 18.7228 26.88 16.8C26.88 9.69717 21.1028 3.91998 14 3.91998ZM17.36 21.84H10.64C10.3294 21.84 10.08 21.5884 10.08 21.28C10.08 20.9715 10.3294 20.72 10.64 20.72H17.36C17.6706 20.72 17.92 20.9715 17.92 21.28C17.92 21.5884 17.6706 21.84 17.36 21.84ZM20.3481 13.7244L15.1178 16.789C15.1178 16.7934 15.12 16.7956 15.12 16.8C15.12 17.419 14.6191 17.92 14 17.92C13.3809 17.92 12.88 17.419 12.88 16.8C12.88 16.1809 13.3809 15.68 14 15.68C14.1991 15.68 14.3828 15.7369 14.5447 15.8265L19.7772 12.7597C20.0419 12.6022 20.3875 12.6897 20.545 12.9565C20.7025 13.2234 20.615 13.5669 20.3481 13.7244ZM24.1741 22.68C24.0691 22.8594 23.8809 22.96 23.6884 22.96C23.6622 22.96 23.6337 22.9534 23.6075 22.949C23.5791 22.9534 23.5484 22.96 23.52 22.96C23.4128 22.96 23.3056 22.9294 23.2094 22.8659L21.5294 21.7459C21.2712 21.5753 21.2012 21.2275 21.3741 20.9694C21.5447 20.7112 21.8925 20.6412 22.1506 20.814L23.4434 21.6759C23.45 21.6628 23.4566 21.6497 23.4631 21.6387C23.4653 21.6059 23.4653 21.5731 23.4894 21.5797C23.4916 21.5797 23.4937 21.5797 23.4937 21.5797C24.1587 20.2628 24.5437 18.8234 24.6225 17.36H22.96C22.6494 17.36 22.4 17.1106 22.4 16.8C22.4 16.4915 22.6494 16.24 22.96 16.24H24.6116C24.5328 14.735 24.1434 13.3153 23.5003 12.0378C23.4872 12.0137 23.4675 11.994 23.4544 11.9678L22.1331 12.7794C22.0412 12.8362 21.9406 12.8625 21.84 12.8625C21.6519 12.8625 21.4681 12.7662 21.3631 12.5934C21.2012 12.3309 21.2844 11.9853 21.5469 11.8234L22.8944 10.9987C22.8528 10.9353 22.82 10.8719 22.785 10.8084C21.9494 9.5878 20.8622 8.5553 19.6022 7.77217C19.5803 7.75905 19.5541 7.74592 19.5322 7.7328L18.725 9.19623C18.6222 9.37998 18.4319 9.48498 18.2328 9.48498C18.1431 9.48498 18.0491 9.46311 17.9637 9.41498C17.6925 9.26623 17.5941 8.92498 17.745 8.65373L18.5478 7.19905C18.5347 7.19248 18.5216 7.18373 18.5084 7.17717C17.2966 6.60623 15.9644 6.2628 14.5578 6.18842V7.83998C14.5578 8.14842 14.3084 8.39998 13.9978 8.39998C13.6894 8.39998 13.4378 8.14842 13.4378 7.83998V6.18842C11.9131 6.26936 10.4716 6.66748 9.18093 7.32592C9.135 7.35436 9.08687 7.3828 9.04093 7.40686L9.90281 8.8003C10.0647 9.0628 9.98374 9.40842 9.71906 9.5703C9.62718 9.62717 9.52656 9.65342 9.42593 9.65342C9.23781 9.65342 9.05624 9.55936 8.94906 9.38873L8.08062 7.97998C8.04125 8.00623 8.00187 8.02592 7.9625 8.0478C6.74187 8.89436 5.71375 9.98811 4.93718 11.2547L6.33281 12.0137C6.60625 12.1625 6.70687 12.5015 6.55812 12.7728C6.4575 12.9609 6.265 13.0659 6.06593 13.0659C5.97625 13.0659 5.88437 13.044 5.79906 12.9981L4.40125 12.239C3.81718 13.464 3.46281 14.8137 3.38843 16.24H5.04C5.35062 16.24 5.6 16.4915 5.6 16.8C5.6 17.1084 5.35062 17.36 5.04 17.36H3.3775C3.45625 18.8125 3.8325 20.2387 4.48875 21.5469C4.49312 21.5578 4.50406 21.5687 4.51062 21.5775C4.52812 21.6125 4.56312 21.6715 4.56312 21.6715L5.84937 20.814C6.1075 20.6412 6.45531 20.7112 6.62593 20.9694C6.79875 21.2253 6.72875 21.5731 6.47062 21.7459L4.79062 22.8659C4.69437 22.9294 4.58718 22.96 4.48 22.96C4.47343 22.96 4.46468 22.9425 4.45375 22.9315C4.2175 22.995 3.95499 22.9053 3.82593 22.68C2.78906 20.8884 2.24 18.8562 2.24 16.8C2.24 10.3162 7.51625 5.03998 14 5.03998C20.4837 5.03998 25.76 10.3162 25.76 16.8C25.76 18.8562 25.2109 20.8884 24.1741 22.68Z" fill="black"/>
</svg>
