<svg width="28" height="28" viewBox="0 0 28 28" fill="none" xmlns="http://www.w3.org/2000/svg">
<path d="M14 1.12C6.8932 1.12 1.12 6.8932 1.12 14C1.12 21.1068 6.8932 26.88 14 26.88C21.1068 26.88 26.88 21.1068 26.88 14C26.88 6.8932 21.1068 1.12 14 1.12ZM14 2.24C20.5015 2.24 25.76 7.49849 25.76 14C25.76 20.5015 20.5015 25.76 14 25.76C7.49849 25.76 2.24 20.5015 2.24 14C2.24 7.49849 7.49849 2.24 14 2.24ZM13.9912 9.51234C13.8429 9.51466 13.7016 9.57573 13.5982 9.68216C13.4949 9.78858 13.438 9.93166 13.44 10.08V13.44H10.08C10.0058 13.4389 9.93211 13.4527 9.86325 13.4803C9.79439 13.508 9.73171 13.5491 9.67887 13.6012C9.62602 13.6533 9.58405 13.7154 9.55541 13.7838C9.52677 13.8523 9.51202 13.9258 9.51202 14C9.51202 14.0742 9.52677 14.1477 9.55541 14.2161C9.58405 14.2846 9.62602 14.3467 9.67887 14.3988C9.73171 14.4509 9.79439 14.492 9.86325 14.5197C9.93211 14.5473 10.0058 14.561 10.08 14.56H13.44V17.92C13.4389 17.9942 13.4527 18.0679 13.4803 18.1367C13.508 18.2056 13.5491 18.2683 13.6012 18.3211C13.6533 18.374 13.7154 18.4159 13.7838 18.4446C13.8523 18.4732 13.9258 18.488 14 18.488C14.0742 18.488 14.1477 18.4732 14.2161 18.4446C14.2846 18.4159 14.3467 18.374 14.3988 18.3211C14.4509 18.2683 14.492 18.2056 14.5197 18.1367C14.5473 18.0679 14.561 17.9942 14.56 17.92V14.56H17.92C17.9942 14.561 18.0679 14.5473 18.1367 14.5197C18.2056 14.492 18.2683 14.4509 18.3211 14.3988C18.374 14.3467 18.4159 14.2846 18.4446 14.2161C18.4732 14.1477 18.488 14.0742 18.488 14C18.488 13.9258 18.4732 13.8523 18.4446 13.7838C18.4159 13.7154 18.374 13.6533 18.3211 13.6012C18.2683 13.5491 18.2056 13.508 18.1367 13.4803C18.0679 13.4527 17.9942 13.4389 17.92 13.44H14.56V10.08C14.561 10.0051 14.547 9.93071 14.5188 9.8613C14.4905 9.79189 14.4487 9.72886 14.3956 9.67593C14.3426 9.62299 14.2795 9.58124 14.21 9.55314C14.1406 9.52504 14.0662 9.51117 13.9912 9.51234Z" fill="black"/>
</svg>
