<svg width="15" height="15" viewBox="0 0 15 15" fill="none" xmlns="http://www.w3.org/2000/svg">
<path d="M13.6617 1.43359C13.9625 1.51562 14.1813 1.76172 14.1813 2.0625C14.1813 9.08984 8.49375 14.75 1.49375 14.75C1.16563 14.75 0.919531 14.5586 0.8375 14.2578L0.18125 11.4141C0.126563 11.1133 0.263281 10.7852 0.564063 10.6484L3.62656 9.33594C3.9 9.22656 4.20078 9.30859 4.39219 9.52734L5.75938 11.1953C7.89219 10.1836 9.61484 8.43359 10.5992 6.35547L8.93125 4.98828C8.7125 4.79688 8.63047 4.49609 8.73984 4.22266L10.0523 1.16016C10.1891 0.859375 10.5172 0.695312 10.818 0.777344L13.6617 1.43359Z" fill="#545F69"/>
</svg>
