<svg width="28" height="28" viewBox="0 0 28 28" fill="none" xmlns="http://www.w3.org/2000/svg">
<path d="M17.3227 18.2153C17.2396 17.3119 17.2724 16.6819 17.2724 15.8572C17.6815 15.6428 18.4143 14.2756 18.5368 13.1206C18.8584 13.0944 19.3659 12.7816 19.5146 11.5434C19.5934 10.8784 19.2762 10.5044 19.0815 10.3862C19.6043 8.81343 20.6915 3.94624 17.0734 3.44312C16.6993 2.78905 15.7455 2.45874 14.5074 2.45874C9.54836 2.55062 8.95117 6.20374 10.0384 10.3862C9.84367 10.5044 9.52648 10.8784 9.60523 11.5434C9.75617 12.7816 10.2615 13.0944 10.583 13.1206C10.7055 14.2756 11.4668 15.6428 11.878 15.8572C11.878 16.6819 11.9087 17.3119 11.8255 18.2153C10.8455 20.8534 4.22617 20.1119 3.91992 25.2H25.1999C24.8937 20.1119 18.3027 20.8534 17.3227 18.2153Z" fill="black"/>
</svg>
