<svg width="13" height="13" viewBox="0 0 13 13" fill="none" xmlns="http://www.w3.org/2000/svg">
<path d="M10.4408 2.42969C11.5893 3.57812 12.3002 5.08203 12.3002 6.72266C12.3002 10.0586 9.51113 12.793 6.14785 12.793C5.13613 12.793 4.15176 12.5195 3.24941 12.0547L0.0501952 12.875L0.897851 9.73047C0.37832 8.82812 0.077539 7.78906 0.077539 6.69531C0.077539 3.35938 2.81191 0.625 6.14785 0.625C7.78848 0.625 9.31973 1.28125 10.4408 2.42969ZM6.14785 11.7539C8.93691 11.7539 11.2611 9.48438 11.2611 6.72266C11.2611 5.35547 10.6869 4.09766 9.72988 3.14062C8.77285 2.18359 7.51504 1.66406 6.1752 1.66406C3.38613 1.66406 1.1166 3.93359 1.1166 6.69531C1.1166 7.65234 1.39004 8.58203 1.88223 9.40234L2.01895 9.59375L1.49941 11.4531L3.41348 10.9336L3.57754 11.043C4.37051 11.5078 5.24551 11.7539 6.14785 11.7539ZM8.93691 7.98047C9.07363 8.0625 9.18301 8.08984 9.21035 8.17188C9.26504 8.22656 9.26504 8.52734 9.12832 8.88281C8.9916 9.23828 8.39004 9.56641 8.1166 9.59375C7.62441 9.67578 7.2416 9.64844 6.28457 9.21094C4.75332 8.55469 3.76895 7.02344 3.68691 6.94141C3.60488 6.83203 3.08535 6.12109 3.08535 5.35547C3.08535 4.61719 3.46816 4.26172 3.60488 4.09766C3.7416 3.93359 3.90566 3.90625 4.01504 3.90625C4.09707 3.90625 4.20645 3.90625 4.28848 3.90625C4.39785 3.90625 4.50723 3.87891 4.64395 4.17969C4.75332 4.48047 5.08145 5.21875 5.10879 5.30078C5.13613 5.38281 5.16348 5.46484 5.10879 5.57422C4.83535 6.14844 4.50723 6.12109 4.67129 6.39453C5.27285 7.40625 5.84707 7.76172 6.74941 8.19922C6.88613 8.28125 6.96816 8.25391 7.07754 8.17188C7.15957 8.0625 7.46035 7.70703 7.54238 7.57031C7.65176 7.40625 7.76113 7.43359 7.89785 7.48828C8.03457 7.54297 8.77285 7.89844 8.93691 7.98047Z" fill="#545F69"/>
</svg>
