<svg width="28" height="28" viewBox="0 0 28 28" fill="none" xmlns="http://www.w3.org/2000/svg">
<path d="M14 1.12C6.89804 1.12 1.11996 6.89808 1.11996 14C1.11996 16.2176 1.69284 18.3982 2.77924 20.3224L1.14068 26.1688C1.08692 26.3609 1.139 26.567 1.27788 26.7098C1.38484 26.8201 1.53044 26.88 1.67996 26.88C1.72476 26.88 1.77012 26.8744 1.81436 26.8638L7.91612 25.3523C9.77924 26.3525 11.8776 26.88 14 26.88C21.1019 26.88 26.88 21.1019 26.88 14C26.88 6.89808 21.1019 1.12 14 1.12ZM20.4792 18.545C20.2036 19.3077 18.882 20.0038 18.247 20.0973C17.6769 20.1807 16.9556 20.2166 16.1638 19.9679C15.6839 19.8167 15.0679 19.6162 14.2788 19.2797C10.962 17.8651 8.79588 14.5673 8.63012 14.3494C8.46492 14.1316 7.27996 12.5793 7.27996 10.9726C7.27996 9.366 8.13396 8.57583 8.43748 8.2488C8.741 7.92175 9.09884 7.84 9.31948 7.84C9.54012 7.84 9.7602 7.84279 9.9534 7.85176C10.1567 7.86184 10.4294 7.77504 10.6976 8.41232C10.9732 9.0664 11.6345 10.673 11.7163 10.8371C11.7992 11.0006 11.854 11.1916 11.7443 11.4094C11.6345 11.6273 11.5796 11.7634 11.4139 11.9543C11.2481 12.1453 11.0667 12.3799 10.9177 12.5266C10.752 12.6896 10.58 12.866 10.7727 13.193C10.9653 13.5201 11.6289 14.5891 12.6123 15.4549C13.8751 16.567 14.9408 16.912 15.2712 17.0755C15.6016 17.239 15.7948 17.2116 15.9874 16.9938C16.18 16.7754 16.814 16.0401 17.034 15.7136C17.2541 15.3871 17.4748 15.4409 17.7783 15.5501C18.0818 15.6587 19.7075 16.4483 20.0379 16.6118C20.3683 16.7754 20.5889 16.8571 20.6718 16.9932C20.7547 17.1287 20.7547 17.7828 20.4792 18.545Z" fill="black"/>
</svg>
